:SAMPLES-PER-SECOND 24
:FULLY-SPECIFIED
:DEGREES
255
root  -1.89844 40.4465 18.9389 169.428 67.9402 175.015
RightUpLeg  2.82357 -14.4365 -21.0467
RightLeg  26.5793 5.89695 2.9849
RightFoot  4.20786 -2.1184 15.621
RightToes  -1.74623e-010 0 -2.59999e-017
Spine  5.57724 4.64921 7.17393
Spine1  11.4619 6.88904 -6.91102
HEad  -15.9973 47.9344 -20.2671
LeftShoulder1  1.69579 -2.76587 -20.6274
LeftArm  8.77662 17.5057 -36.443
LeftForeArm  22.4456 -64.471 -22.0171
LeftHand  -0.0729574 4.39404 6.53556
RightShoulder  2.77799 5.17917 25.9617
RightArm  6.00655 -11.4181 42.8098
RightForeArm  149.706 59.2376 161.517
RightHand  -0.100529 -3.70557 -5.78936
LeftUpLeg  -7.51462 4.2929 11.3188
LeftLeg  24.2785 -5.91599 -2.59299
LeftFoot  9.4892 2.3085 -12.8212
LeftToes  -6.27559e-011 -2.10356e-011 8.24929e-012
256
root  -1.9535 39.4577 19.1519 168.238 67.8797 174.292
RightUpLeg  2.82651 -14.793 -21.8651
RightLeg  30.9046 6.48602 3.94574
RightFoot  -0.0594535 -1.67071 16.7992
RightToes  -1.74623e-010 0 -2.59999e-017
Spine  6.29457 4.62556 6.61383
Spine1  11.587 6.80429 -6.68792
HEad  -15.7858 47.789 -20.0663
LeftShoulder1  1.69721 -2.74882 -20.7307
LeftArm  8.01173 13.3187 -35.2367
LeftForeArm  25.2271 -67.658 -25.9046
LeftHand  -0.0900943 4.5055 9.8005
RightShoulder  2.66271 5.02672 25.1485
RightArm  1.1398 -6.44589 40.3673
RightForeArm  145.763 61.912 159.143
RightHand  -0.161248 -3.36654 -8.51325
LeftUpLeg  -8.15221 4.17824 11.6591
LeftLeg  29.4415 -7.95954 -4.49176
LeftFoot  3.84963 1.78548 -13.5151
LeftToes  -6.27559e-011 -2.10356e-011 8.24929e-012
257
root  -2.05353 37.9478 19.4304 167.927 68.3121 174.132
RightUpLeg  1.60015 -15.1654 -22.0867
RightLeg  36.1966 6.56626 4.89353
RightFoot  -11.7673 -0.0316128 16.2298
RightToes  -1.74623e-010 0 -2.59999e-017
Spine  6.95064 4.71754 6.15718
Spine1  11.666 6.81836 -6.86382
HEad  -17.334 47.4225 -20.4851
LeftShoulder1  1.6702 -2.64179 -20.766
LeftArm  6.48688 7.84354 -34.3563
LeftForeArm  25.6795 -68.858 -27.8648
LeftHand  -0.0830993 4.74438 12.6146
RightShoulder  2.63089 4.94542 25.0698
RightArm  -4.63826 0.0290182 36.7952
RightForeArm  139.516 66.465 154.019
RightHand  -0.0852745 -4.62657 -10.9213
LeftUpLeg  -10.3442 5.30369 12.5425
LeftLeg  35.9269 -7.33559 -5.30512
LeftFoot  -6.42581 0.658328 -14.2845
LeftToes  -6.27559e-011 -2.10356e-011 8.24929e-012
258
root  -2.27122 36.3997 19.6928 166.869 69.0095 173.625
RightUpLeg  -0.487894 -15.388 -22.6455
RightLeg  42.5277 6.93855 6.50524
RightFoot  -22.0502 1.19372 14.2774
RightToes  -1.74623e-010 0 -2.59999e-017
Spine  7.94875 4.36825 5.50881
Spine1  13.5496 6.41122 -6.56428
HEad  -24.0286 47.3804 -25.6958
LeftShoulder1  1.71776 -2.65751 -21.5124
LeftArm  2.36645 3.14759 -33.4185
LeftForeArm  30.1782 -69.4294 -28.1121
LeftHand  0.0440891 5.87529 13.9468
RightShoulder  2.67887 4.88367 25.91
RightArm  -9.18473 8.63756 33.6871
RightForeArm  133.057 71.6985 145.202
RightHand  0.276435 -7.6259 -15.1206
LeftUpLeg  -13.2488 6.21718 13.255
LeftLeg  43.4229 -6.48914 -6.13774
LeftFoot  -14.9942 -0.359038 -14.0606
LeftToes  -6.27559e-011 -2.10356e-011 8.24929e-012
259
root  -2.34445 35.8503 19.8126 164.965 69.9675 172.207
RightUpLeg  -1.27051 -15.1637 -23.285
RightLeg  44.8468 7.38982 7.50814
RightFoot  -24.5984 1.40031 13.4174
RightToes  -1.74623e-010 0 -2.59999e-017
Spine  8.21634 3.95306 4.03924
Spine1  16.3984 5.58955 -5.17453
HEad  -32.33 47.5774 -33.5656
LeftShoulder1  1.80825 -2.75097 -22.6072
LeftArm  -1.41592 3.43865 -34.8219
LeftForeArm  33.9333 -67.6698 -24.4647
LeftHand  0.236176 6.94323 18.3723
RightShoulder  2.8604 5.0678 27.3959
RightArm  -9.52133 12.5656 34.579
RightForeArm  132.037 74.9996 137.174
RightHand  0.798129 -10.0336 -20.1629
LeftUpLeg  -13.3946 6.5566 13.3311
LeftLeg  45.5427 -6.10491 -6.19098
LeftFoot  -17.0431 -0.610926 -14.217
LeftToes  -6.27559e-011 -2.10356e-011 8.24929e-012
260
root  -2.08366 36.7754 19.7149 166.416 71.164 172.715
RightUpLeg  -0.0448358 -14.9903 -22.2645
RightLeg  39.3504 7.91731 6.64723
RightFoot  -20.562 0.978321 13.8088
RightToes  -1.74623e-010 0 -2.59999e-017
Spine  6.60005 3.94382 3.8641
Spine1  17.046 5.24985 -4.17205
HEad  -35.0977 48.2978 -37.1043
LeftShoulder1  1.82199 -2.73304 -22.9288
LeftArm  -0.0156534 8.17866 -39.16
LeftForeArm  26.5345 -60.96 -18.0071
LeftHand  0.28908 6.80559 23.8486
RightShoulder  3.06842 5.34226 28.7533
RightArm  -6.13858 4.91551 39.2005
RightForeArm  136.319 74.4097 139.65
RightHand  0.917143 -10.3176 -21.7176
LeftUpLeg  -11.0502 7.08126 13.3945
LeftLeg  40.016 -5.68211 -4.70155
LeftFoot  -13.8855 -0.25381 -15.0855
LeftToes  -6.27559e-011 -2.10356e-011 8.24929e-012
261
root  -1.66973 38.5077 19.4599 169.408 72.5031 174.151
RightUpLeg  2.5663 -14.8823 -20.7487
RightLeg  29.0772 9.14417 5.23584
RightFoot  -10.7826 -0.159879 15.1783
RightToes  -1.74623e-010 0 -2.59999e-017
Spine  4.75768 4.1315 5.29846
Spine1  15.3149 5.62632 -4.52607
HEad  -32.509 50.1211 -35.5776
LeftShoulder1  1.82327 -2.6659 -23.2854
LeftArm  4.62161 14.2459 -41.8619
LeftForeArm  15.2749 -52.6063 -13.4837
LeftHand  0.00934788 5.47014 21.7938
RightShoulder  3.30692 5.59059 30.4616
RightArm  -2.33605 -8.94917 42.6786
RightForeArm  136.447 71.6976 145.825
RightHand  0.744891 -10.2878 -18.1466
LeftUpLeg  -7.85188 8.29332 13.4906
LeftLeg  31.1587 -5.97253 -3.51583
LeftFoot  -4.93234 0.919161 -15.7664
LeftToes  -6.27559e-011 -2.10356e-011 8.24929e-012
262
root  -1.33464 40.0688 19.1993 170.139 73.8187 173.791
RightUpLeg  4.49199 -15.0036 -20.2139
RightLeg  20.4137 9.60669 3.7429
RightFoot  1.19871 -1.89654 17.1582
RightToes  -1.74623e-010 0 -2.59999e-017
Spine  3.5246 4.08826 6.09758
Spine1  13.9244 5.81015 -4.99236
HEad  -30.3421 52.3357 -33.6785
LeftShoulder1  1.88089 -2.66846 -24.2546
LeftArm  7.49478 20.3908 -41.6681
LeftForeArm  12.5155 -48.3176 -11.6666
LeftHand  -0.15898 4.2941 15.7186
RightShoulder  3.56226 5.85573 32.1799
RightArm  1.44746 -20.1427 43.1869
RightForeArm  139.4 69.5477 149.938
RightHand  0.449049 -9.69847 -12.7752
LeftUpLeg  -5.19232 9.27387 13.2159
LeftLeg  23.5579 -6.67283 -2.84655
LeftFoot  6.91119 2.61831 -16.4357
LeftToes  -6.27559e-011 -2.10356e-011 8.24929e-012
263
root  -1.15689 40.9526 19.0428 169.496 74.8365 172.379
RightUpLeg  4.24946 -14.5645 -19.8442
RightLeg  17.4882 6.65348 2.18002
RightFoot  7.95751 -2.73433 16.3484
RightToes  -1.74623e-010 0 -2.59999e-017
Spine  2.40438 3.88327 5.54515
Spine1  14.0579 5.51711 -4.59512
HEad  -31.0328 53.5358 -33.6578
LeftShoulder1  1.8608 -2.63438 -24.0887
LeftArm  8.75093 25.2994 -42.0775
LeftForeArm  15.1874 -47.297 -11.0507
LeftHand  -0.203781 3.63332 12.8107
RightShoulder  3.55971 5.90711 31.9446
RightArm  4.82438 -26.5848 42.7364
RightForeArm  150.702 67.4299 154.213
RightHand  0.0776824 -6.70783 -8.74025
LeftUpLeg  -4.12902 9.39457 12.6787
LeftLeg  19.4555 -5.30043 -1.75638
LeftFoot  12.0337 3.28729 -16.1766
LeftToes  -6.27559e-011 -2.10356e-011 8.24929e-012
264
root  -1.15649 41.1721 19.0187 168.957 75.2578 171.539
RightUpLeg  3.3745 -13.7239 -19.301
RightLeg  19.2655 3.45766 1.13424
RightFoot  8.67112 -2.31567 13.4097
RightToes  -1.74623e-010 0 -2.59999e-017
Spine  2.37754 3.66062 4.60544
Spine1  14.6189 5.09194 -4.16946
HEad  -32.8325 53.3339 -34.7854
LeftShoulder1  1.77284 -2.56302 -22.9364
LeftArm  11.1862 26.964 -43.0164
LeftForeArm  16.344 -46.25 -10.5449
LeftHand  -0.239485 3.01581 11.2918
RightShoulder  3.3323 5.7053 30.2829
RightArm  6.49136 -28.9348 41.5659
RightForeArm  156.744 64.7517 157.755
RightHand  -0.0450078 -4.98984 -6.93848
LeftUpLeg  -4.51458 9.159 12.4357
LeftLeg  19.0242 -3.46273 -0.998482
LeftFoot  10.764 2.76534 -14.433
LeftToes  -6.27559e-011 -2.10356e-011 8.24929e-012
